<svg id="Capa_1" enable-background="new 0 0 512 512" height="512" viewBox="0 0 512 512" width="512" xmlns="http://www.w3.org/2000/svg"><path d="m512 46c0-24.853-20.147-45-45-45h-422c-24.853 0-45 20.147-45 45v90l10 10h492c3.905-3.905 6.095-6.095 10-10z" fill="#0052c2"/><path d="m512 46v90c-3.91 3.91-6.09 6.09-10 10h-246v-145h211c24.85 0 45 20.15 45 45z" fill="#003481"/><path d="m436 61h-90c-8.284 0-15 6.716-15 15s6.716 15 15 15h90c8.284 0 15-6.716 15-15s-6.716-15-15-15z" fill="#0052c2"/><circle cx="196" cy="76" fill="#f03800" r="15"/><circle cx="136" cy="76" fill="#fdbf00" r="15"/><circle cx="76" cy="76" fill="#37d742" r="15"/><path d="m0 136v330c0 24.813 20.187 45 45 45h422c24.813 0 45-20.187 45-45v-330z" fill="#e0f4ff"/><path d="m512 136v330c0 24.81-20.19 45-45 45h-211v-375z" fill="#b8e0f5"/><g fill="#f03800"><path d="m180.8 433.53c1.52 9.13-5.51 17.47-14.82 17.47-7.2 0-13.55-5.2-14.78-12.53l-5-30c-.86-5.18 1.05-10.44 5.04-13.86.458-.393 34.969-29.983 35.44-30.36 1.4 11.18 4.97 21.61 10.22 30.74l-19.71 16.89z"/><path d="m186.33 361h-45.58l-16.04 36.09c-3.36 7.55-12.21 10.99-19.8 7.62-7.57-3.37-10.98-12.23-7.62-19.8l20-45c2.41-5.42 7.78-8.91 13.71-8.91h58.01c-2.757 10.015-3.541 20.346-2.68 30z"/><path d="m232.69 280.42c-9.81 3.84-18.62 10.05-25.87 17.99l-39.92-30.49c-2.9-2.21-4.89-5.4-5.61-8.98l-12-60c-1.62-8.12 3.64-16.02 11.77-17.65 8.12-1.62 16.02 3.65 17.65 11.77l10.89 54.45z"/><path d="m204.17 301.45c-6.42 7.84-11.42 17.14-14.54 27.39-9.52-2.28-26.03-6.27-55.13-13.25-5.23-1.26-9.38-5.21-10.89-10.37l-22-75c-2.34-7.95 2.22-16.28 10.17-18.61s16.28 2.22 18.61 10.17l19.56 66.66z"/></g><path d="m365.8 408.47-5 30c-1.23 7.33-7.58 12.53-14.78 12.53-9.3 0-16.34-8.33-14.82-17.47l3.61-21.65-19.71-16.89c5.25-9.13 8.82-19.56 10.22-30.74.471.377 34.982 29.967 35.44 30.36 3.99 3.42 5.9 8.68 5.04 13.86z" fill="#c61a00"/><path d="m407.09 404.71c-7.57 3.36-16.43-.05-19.8-7.62l-16.04-36.09h-45.58c.86-9.649.079-19.976-2.68-30h58.01c5.93 0 11.3 3.49 13.71 8.91l20 45c3.36 7.57-.05 16.43-7.62 19.8z" fill="#c61a00"/><path d="m362.71 198.94-12 60c-.72 3.58-2.71 6.77-5.61 8.98l-39.92 30.49c-7.25-7.94-16.06-14.15-25.87-17.99l43.09-32.91 10.89-54.45c1.63-8.13 9.53-13.4 17.65-11.77 8.13 1.63 13.39 9.53 11.77 17.65z" fill="#c61a00"/><path d="m410.39 230.22-22 75c-1.51 5.16-5.66 9.11-10.89 10.37-29.87 7.16-46.12 11.1-55.13 13.25-3.12-10.24-8.11-19.54-14.54-27.38l54.22-13.02 19.56-66.66c2.33-7.95 10.67-12.5 18.61-10.17 7.95 2.33 12.51 10.66 10.17 18.61z" fill="#c61a00"/><path d="m292.896 281.716c5.1-7.295 8.104-16.159 8.104-25.716 0-24.813-20.187-45-45-45s-45 20.187-45 45c0 9.557 3.004 18.421 8.104 25.716-22.727 14.191-38.104 41.042-38.104 71.784 0 45.49 33.645 82.5 75 82.5s75-37.01 75-82.5c0-30.742-15.377-57.593-38.104-71.784z" fill="#ff641a"/><path d="m292.91 281.7c5.1-7.29 8.09-16.16 8.09-25.7 0-24.81-20.19-45-45-45v225c41.36 0 75-37.01 75-82.5 0-30.74-15.36-57.61-38.09-71.8z" fill="#f03800"/></svg>